Hebrik-MediumItalic.ufo
<glyph name="onequarter" format="1">
  <advance width="746"/>
  <unicode hex="00BC"/>
  <outline>
    <contour>
      <point x="301" y="678" type="line"/>
      <point x="304" y="691"/>
      <point x="297" y="700"/>
      <point x="284" y="700" type="curve"/>
      <point x="246" y="700" type="line" smooth="yes"/>
      <point x="236" y="700"/>
      <point x="229" y="698"/>
      <point x="221" y="693" type="curve"/>
      <point x="86" y="606" type="line" smooth="yes"/>
      <point x="74" y="598"/>
      <point x="69" y="585"/>
      <point x="75" y="575" type="curve" smooth="yes"/>
      <point x="100" y="533" type="line" smooth="yes"/>
      <point x="106" y="522"/>
      <point x="120" y="521"/>
      <point x="130" y="528" type="curve" smooth="yes"/>
      <point x="180" y="560" type="line"/>
      <point x="140" y="372" type="line"/>
      <point x="137" y="359"/>
      <point x="144" y="350"/>
      <point x="157" y="350" type="curve"/>
      <point x="209" y="350" type="line"/>
      <point x="222" y="350"/>
      <point x="233" y="359"/>
      <point x="236" y="372" type="curve" smooth="yes"/>
    </contour>
    <contour>
      <point x="-24" y="31" type="line" smooth="yes"/>
      <point x="-38" y="17"/>
      <point x="-30" y="0"/>
      <point x="-10" y="0" type="curve"/>
      <point x="51" y="0" type="line" smooth="yes"/>
      <point x="70" y="0"/>
      <point x="79" y="7"/>
      <point x="91" y="19" type="curve"/>
      <point x="723" y="669" type="line" smooth="yes"/>
      <point x="737" y="683"/>
      <point x="729" y="700"/>
      <point x="709" y="700" type="curve"/>
      <point x="648" y="700" type="line" smooth="yes"/>
      <point x="629" y="700"/>
      <point x="620" y="693"/>
      <point x="608" y="681" type="curve" smooth="yes"/>
    </contour>
    <contour>
      <point x="540" y="331" type="curve"/>
      <point x="368" y="151" type="line" smooth="yes"/>
      <point x="352" y="135"/>
      <point x="350" y="124"/>
      <point x="349" y="121" type="curve" smooth="yes"/>
      <point x="340" y="78" type="line" smooth="yes"/>
      <point x="338" y="65"/>
      <point x="344" y="56"/>
      <point x="357" y="56" type="curve" smooth="yes"/>
      <point x="512" y="56" type="line"/>
      <point x="505" y="21" type="line" smooth="yes"/>
      <point x="502" y="8"/>
      <point x="509" y="-1"/>
      <point x="522" y="-1" type="curve" smooth="yes"/>
      <point x="574" y="-1" type="line" smooth="yes"/>
      <point x="587" y="-1"/>
      <point x="598" y="8"/>
      <point x="601" y="21" type="curve" smooth="yes"/>
      <point x="608" y="56" type="line"/>
      <point x="643" y="56" type="line" smooth="yes"/>
      <point x="656" y="56"/>
      <point x="667" y="65"/>
      <point x="670" y="78" type="curve" smooth="yes"/>
      <point x="679" y="120" type="line" smooth="yes"/>
      <point x="682" y="133"/>
      <point x="675" y="142"/>
      <point x="662" y="142" type="curve" smooth="yes"/>
      <point x="627" y="142" type="line"/>
      <point x="666" y="327" type="line" smooth="yes"/>
      <point x="669" y="340"/>
      <point x="662" y="349"/>
      <point x="649" y="349" type="curve" smooth="yes"/>
      <point x="574" y="349" type="line" smooth="yes"/>
      <point x="565" y="349"/>
      <point x="553" y="345"/>
    </contour>
    <contour>
      <point x="551" y="236" type="line"/>
      <point x="531" y="142" type="line"/>
      <point x="462" y="142" type="line"/>
    </contour>
  </outline>
</glyph>
<glyph name="onehalf" format="1">
  <advance width="751"/>
  <unicode hex="00BD"/>
  <outline>
    <contour>
      <point x="301" y="678" type="line"/>
      <point x="304" y="691"/>
      <point x="297" y="700"/>
      <point x="284" y="700" type="curve"/>
      <point x="246" y="700" type="line" smooth="yes"/>
      <point x="236" y="700"/>
      <point x="229" y="698"/>
      <point x="221" y="693" type="curve"/>
      <point x="86" y="606" type="line" smooth="yes"/>
      <point x="74" y="598"/>
      <point x="69" y="585"/>
      <point x="75" y="575" type="curve" smooth="yes"/>
      <point x="100" y="533" type="line" smooth="yes"/>
      <point x="106" y="522"/>
      <point x="120" y="521"/>
      <point x="130" y="528" type="curve" smooth="yes"/>
      <point x="180" y="560" type="line"/>
      <point x="140" y="372" type="line"/>
      <point x="137" y="359"/>
      <point x="144" y="350"/>
      <point x="157" y="350" type="curve"/>
      <point x="209" y="350" type="line"/>
      <point x="222" y="350"/>
      <point x="233" y="359"/>
      <point x="236" y="372" type="curve" smooth="yes"/>
    </contour>
    <contour>
      <point x="-24" y="31" type="line" smooth="yes"/>
      <point x="-38" y="17"/>
      <point x="-30" y="0"/>
      <point x="-10" y="0" type="curve"/>
      <point x="51" y="0" type="line" smooth="yes"/>
      <point x="70" y="0"/>
      <point x="79" y="7"/>
      <point x="91" y="19" type="curve"/>
      <point x="723" y="669" type="line" smooth="yes"/>
      <point x="737" y="683"/>
      <point x="729" y="700"/>
      <point x="709" y="700" type="curve"/>
      <point x="648" y="700" type="line" smooth="yes"/>
      <point x="629" y="700"/>
      <point x="620" y="693"/>
      <point x="608" y="681" type="curve" smooth="yes"/>
    </contour>
    <contour>
      <point x="352" y="22" type="line" smooth="yes"/>
      <point x="349" y="9"/>
      <point x="355" y="0"/>
      <point x="368" y="0" type="curve" smooth="yes"/>
      <point x="617" y="0" type="line" smooth="yes"/>
      <point x="630" y="0"/>
      <point x="641" y="9"/>
      <point x="644" y="22" type="curve" smooth="yes"/>
      <point x="653" y="64" type="line" smooth="yes"/>
      <point x="656" y="77"/>
      <point x="649" y="86"/>
      <point x="636" y="86" type="curve" smooth="yes"/>
      <point x="534" y="86" type="line"/>
      <point x="643" y="149"/>
      <point x="661" y="170"/>
      <point x="674" y="233" type="curve" smooth="yes"/>
      <point x="688" y="299"/>
      <point x="643" y="355"/>
      <point x="557" y="355" type="curve" smooth="yes"/>
      <point x="474" y="355"/>
      <point x="423" y="300"/>
      <point x="409" y="248" type="curve" smooth="yes"/>
      <point x="406" y="236"/>
      <point x="411" y="229"/>
      <point x="423" y="229" type="curve" smooth="yes"/>
      <point x="475" y="229" type="line" smooth="yes"/>
      <point x="485" y="229"/>
      <point x="492" y="228"/>
      <point x="503" y="243" type="curve" smooth="yes"/>
      <point x="511" y="254"/>
      <point x="523" y="269"/>
      <point x="549" y="269" type="curve" smooth="yes"/>
      <point x="577" y="269"/>
      <point x="582" y="250"/>
      <point x="577" y="231" type="curve" smooth="yes"/>
      <point x="570" y="195"/>
      <point x="521" y="178"/>
      <point x="387" y="91" type="curve" smooth="yes"/>
      <point x="365" y="77"/>
      <point x="360" y="62"/>
      <point x="357" y="52" type="curve" smooth="yes"/>
    </contour>
  </outline>
</glyph>
<glyph name="qamatshebrew" format="1">
  <advance width="0"/>
  <unicode hex="05B8"/>
  <outline>
    <contour>
      <point x="75" y="-146" type="line" smooth="yes"/>
      <point x="88" y="-146"/>
      <point x="99" y="-137"/>
      <point x="102" y="-124" type="curve" smooth="yes"/>
      <point x="109" y="-93" type="line" smooth="yes"/>
      <point x="111" y="-80"/>
      <point x="104" y="-71"/>
      <point x="91" y="-71" type="curve" smooth="yes"/>
      <point x="-117" y="-71" type="line" smooth="yes"/>
      <point x="-130" y="-71"/>
      <point x="-141" y="-80"/>
      <point x="-143" y="-93" type="curve" smooth="yes"/>
      <point x="-150" y="-124" type="line" smooth="yes"/>
      <point x="-153" y="-137"/>
      <point x="-146" y="-146"/>
      <point x="-133" y="-146" type="curve" smooth="yes"/>
    </contour>
    <contour>
      <point x="-40" y="-245" type="line" smooth="yes"/>
      <point x="-27" y="-245"/>
      <point x="-16" y="-236"/>
      <point x="-13" y="-223" type="curve" smooth="yes"/>
      <point x="6" y="-134" type="line" smooth="yes"/>
      <point x="10" y="-111"/>
      <point x="1" y="-112"/>
      <point x="-12" y="-112" type="curve" smooth="yes"/>
      <point x="-36" y="-112" type="line" smooth="yes"/>
      <point x="-49" y="-112"/>
      <point x="-58" y="-111"/>
      <point x="-62" y="-134" type="curve" smooth="yes"/>
      <point x="-81" y="-223" type="line" smooth="yes"/>
      <point x="-84" y="-236"/>
      <point x="-77" y="-245"/>
      <point x="-64" y="-245" type="curve" smooth="yes"/>
    </contour>
    <contour>
      <point x="2" y="0" type="move" name="_bottom"/>
    </contour>
  </outline>
</glyph>
<glyph name="shindothebrew" format="1">
  <advance width="0"/>
  <unicode hex="05C1"/>
  <outline>
    <contour>
      <point x="47" y="516" type="line" smooth="yes"/>
      <point x="60" y="516"/>
      <point x="71" y="525"/>
      <point x="74" y="538" type="curve" smooth="yes"/>
      <point x="83" y="578" type="line" smooth="yes"/>
      <point x="86" y="591"/>
      <point x="79" y="600"/>
      <point x="66" y="600" type="curve" smooth="yes"/>
      <point x="26" y="600" type="line" smooth="yes"/>
      <point x="13" y="600"/>
      <point x="2" y="591"/>
      <point x="-1" y="578" type="curve" smooth="yes"/>
      <point x="-10" y="538" type="line" smooth="yes"/>
      <point x="-12" y="525"/>
      <point x="-5" y="516"/>
      <point x="8" y="516" type="curve" smooth="yes"/>
    </contour>
    <contour>
      <point x="110" y="415" type="move" name="_topright"/>
    </contour>
  </outline>
</glyph>
<glyph name="bethebrew" format="1">
  <advance width="560"/>
  <unicode hex="05D1"/>
  <outline>
    <contour>
      <point x="459" y="0" type="line" smooth="yes"/>
      <point x="472" y="0"/>
      <point x="485" y="10"/>
      <point x="488" y="24" type="curve" smooth="yes"/>
      <point x="500" y="83" type="line" smooth="yes"/>
      <point x="503" y="97"/>
      <point x="495" y="107"/>
      <point x="481" y="107" type="curve" smooth="yes"/>
      <point x="445" y="107" type="line"/>
      <point x="492" y="323" type="line" smooth="yes"/>
      <point x="528" y="494"/>
      <point x="450" y="571"/>
      <point x="274" y="571" type="curve" smooth="yes"/>
      <point x="152" y="571" type="line" smooth="yes"/>
      <point x="138" y="571"/>
      <point x="126" y="561"/>
      <point x="123" y="547" type="curve" smooth="yes"/>
      <point x="111" y="488" type="line" smooth="yes"/>
      <point x="108" y="474"/>
      <point x="115" y="464"/>
      <point x="129" y="464" type="curve" smooth="yes"/>
      <point x="246" y="464" type="line" smooth="yes"/>
      <point x="346" y="464"/>
      <point x="378" y="412"/>
      <point x="358" y="321" type="curve" smooth="yes"/>
      <point x="312" y="107" type="line"/>
      <point x="43" y="107" type="line" smooth="yes"/>
      <point x="29" y="107"/>
      <point x="17" y="97"/>
      <point x="14" y="83" type="curve" smooth="yes"/>
      <point x="2" y="24" type="line" smooth="yes"/>
      <point x="-1" y="10"/>
      <point x="7" y="0"/>
      <point x="21" y="0" type="curve" smooth="yes"/>
    </contour>
    <contour>
      <point x="230" y="0" type="move" name="bottom"/>
    </contour>
    <contour>
      <point x="341" y="520" type="move" name="top"/>
    </contour>
    <contour>
      <point x="-30" y="0" type="move" name="bottomleft"/>
    </contour>
    <contour>
      <point x="81" y="520" type="move" name="topleft"/>
    </contour>
    <contour>
      <point x="200" y="260" type="move" name="center"/>
    </contour>
  </outline>
</glyph>
<glyph name="gimelhebrew" format="1">
  <advance width="465"/>
  <unicode hex="05D2"/>
  <outline>
    <contour>
      <point x="359" y="0" type="line" smooth="yes"/>
      <point x="373" y="0"/>
      <point x="388" y="10"/>
      <point x="388" y="24" type="curve" smooth="yes"/>
      <point x="394" y="333" type="line" smooth="yes"/>
      <point x="395" y="499"/>
      <point x="356" y="575"/>
      <point x="206" y="575" type="curve" smooth="yes"/>
      <point x="168" y="575" type="line" smooth="yes"/>
      <point x="154" y="575"/>
      <point x="142" y="565"/>
      <point x="139" y="551" type="curve" smooth="yes"/>
      <point x="126" y="488" type="line" smooth="yes"/>
      <point x="123" y="475"/>
      <point x="131" y="464"/>
      <point x="145" y="464" type="curve" smooth="yes"/>
      <point x="180" y="464" type="line" smooth="yes"/>
      <point x="249" y="464"/>
      <point x="260" y="419"/>
      <point x="259" y="327" type="curve" smooth="yes"/>
      <point x="256" y="24" type="line"/>
      <point x="254" y="10"/>
      <point x="261" y="0"/>
      <point x="274" y="0" type="curve" smooth="yes"/>
    </contour>
    <contour>
      <point x="241" y="88"/>
      <point x="328" y="175"/>
      <point x="347" y="283" type="curve"/>
      <point x="289" y="280" type="line"/>
      <point x="272" y="237"/>
      <point x="211" y="178"/>
      <point x="158" y="151" type="curve" smooth="yes"/>
      <point x="122" y="133"/>
      <point x="58" y="115"/>
      <point x="42" y="110" type="curve" smooth="yes"/>
      <point x="26" y="104"/>
      <point x="18" y="95"/>
      <point x="16" y="85" type="curve" smooth="yes"/>
      <point x="-1" y="7" type="line" smooth="yes"/>
      <point x="-3" y="-7"/>
      <point x="7" y="-10"/>
      <point x="20" y="-8" type="curve" smooth="yes"/>
      <point x="69" y="1"/>
      <point x="113" y="17"/>
      <point x="172" y="50" type="curve" smooth="yes"/>
    </contour>
    <contour>
      <point x="150" y="260" type="move" name="center"/>
    </contour>
    <contour>
      <point x="333" y="520" type="move" name="top"/>
    </contour>
    <contour>
      <point x="-27" y="0" type="move" name="bottomleft"/>
    </contour>
    <contour>
      <point x="84" y="520" type="move" name="topleft"/>
    </contour>
    <contour>
      <point x="222" y="0" type="move" name="bottom"/>
    </contour>
  </outline>
</glyph>
<glyph name="dalethebrew" format="1">
  <advance width="557"/>
  <unicode hex="05D3"/>
  <outline>
    <contour>
      <point x="338" y="0" type="line" smooth="yes"/>
      <point x="351" y="0"/>
      <point x="366" y="9"/>
      <point x="369" y="22" type="curve"/>
      <point x="437" y="344" type="line" smooth="yes"/>
      <point x="453" y="421"/>
      <point x="488" y="481"/>
      <point x="522" y="481" type="curve"/>
      <point x="391" y="481" type="line"/>
      <point x="357" y="481"/>
      <point x="328" y="435"/>
      <point x="311" y="353" type="curve" smooth="yes"/>
      <point x="241" y="22" type="line" smooth="yes"/>
      <point x="238" y="9"/>
      <point x="245" y="0"/>
      <point x="258" y="0" type="curve" smooth="yes"/>
    </contour>
    <contour>
      <point x="543" y="464" type="line" smooth="yes"/>
      <point x="558" y="464"/>
      <point x="570" y="475"/>
      <point x="573" y="488" type="curve" smooth="yes"/>
      <point x="585" y="547" type="line" smooth="yes"/>
      <point x="588" y="561"/>
      <point x="579" y="571"/>
      <point x="566" y="571" type="curve" smooth="yes"/>
      <point x="128" y="571" type="line" smooth="yes"/>
      <point x="114" y="571"/>
      <point x="102" y="561"/>
      <point x="100" y="547" type="curve" smooth="yes"/>
      <point x="87" y="488" type="line" smooth="yes"/>
      <point x="84" y="475"/>
      <point x="92" y="464"/>
      <point x="106" y="464" type="curve" smooth="yes"/>
    </contour>
    <contour>
      <point x="175" y="260" type="move" name="center"/>
    </contour>
    <contour>
      <point x="341" y="520" type="move" name="top"/>
    </contour>
    <contour>
      <point x="-10" y="0" type="move" name="bottomleft"/>
    </contour>
    <contour>
      <point x="101" y="520" type="move" name="topleft"/>
    </contour>
    <contour>
      <point x="282" y="0" type="move" name="bottom"/>
    </contour>
  </outline>
</glyph>
<glyph name="hehebrew" format="1">
  <advance width="633"/>
  <unicode hex="05D4"/>
  <outline>
    <contour>
      <point x="497" y="0" type="line" smooth="yes"/>
      <point x="511" y="0"/>
      <point x="523" y="10"/>
      <point x="526" y="24" type="curve" smooth="yes"/>
      <point x="590" y="323" type="line" smooth="yes"/>
      <point x="625" y="490"/>
      <point x="552" y="571"/>
      <point x="376" y="571" type="curve" smooth="yes"/>
      <point x="164" y="571" type="line" smooth="yes"/>
      <point x="150" y="571"/>
      <point x="138" y="561"/>
      <point x="136" y="547" type="curve" smooth="yes"/>
      <point x="123" y="488" type="line" smooth="yes"/>
      <point x="120" y="475"/>
      <point x="128" y="464"/>
      <point x="142" y="464" type="curve" smooth="yes"/>
      <point x="349" y="464" type="line" smooth="yes"/>
      <point x="448" y="464"/>
      <point x="480" y="412"/>
      <point x="460" y="322" type="curve" smooth="yes"/>
      <point x="398" y="24" type="line" smooth="yes"/>
      <point x="394" y="10"/>
      <point x="403" y="0"/>
      <point x="416" y="0" type="curve" smooth="yes"/>
    </contour>
    <contour>
      <point x="123" y="0" type="line" smooth="yes"/>
      <point x="137" y="0"/>
      <point x="150" y="10"/>
      <point x="153" y="24" type="curve"/>
      <point x="219" y="338" type="line" smooth="yes"/>
      <point x="222" y="352"/>
      <point x="214" y="362"/>
      <point x="200" y="362" type="curve" smooth="yes"/>
      <point x="120" y="362" type="line" smooth="yes"/>
      <point x="106" y="362"/>
      <point x="94" y="352"/>
      <point x="90" y="338" type="curve" smooth="yes"/>
      <point x="24" y="24" type="line" smooth="yes"/>
      <point x="21" y="10"/>
      <point x="29" y="0"/>
      <point x="43" y="0" type="curve" smooth="yes"/>
    </contour>
    <contour>
      <point x="322" y="260" type="move" name="center"/>
    </contour>
    <contour>
      <point x="378" y="520" type="move" name="top"/>
    </contour>
    <contour>
      <point x="-30" y="0" type="move" name="bottomleft"/>
    </contour>
    <contour>
      <point x="81" y="520" type="move" name="topleft"/>
    </contour>
    <contour>
      <point x="267" y="0" type="move" name="bottom"/>
    </contour>
  </outline>
</glyph>
<glyph name="vavhebrew" format="1">
  <advance width="270"/>
  <unicode hex="05D5"/>
  <outline>
    <contour>
      <point x="127" y="0" type="line" smooth="yes"/>
      <point x="141" y="0"/>
      <point x="154" y="10"/>
      <point x="157" y="24" type="curve"/>
      <point x="268" y="547" type="line" smooth="yes"/>
      <point x="270" y="561"/>
      <point x="262" y="571"/>
      <point x="248" y="571" type="curve" smooth="yes"/>
      <point x="164" y="571" type="line" smooth="yes"/>
      <point x="150" y="571"/>
      <point x="138" y="561"/>
      <point x="135" y="547" type="curve" smooth="yes"/>
      <point x="24" y="24" type="line" smooth="yes"/>
      <point x="21" y="10"/>
      <point x="29" y="0"/>
      <point x="43" y="0" type="curve" smooth="yes"/>
    </contour>
    <contour>
      <point x="-2" y="260" type="move" name="center"/>
    </contour>
    <contour>
      <point x="196" y="520" type="move" name="top"/>
    </contour>
    <contour>
      <point x="-30" y="0" type="move" name="bottomleft"/>
    </contour>
    <contour>
      <point x="169" y="520" type="move" name="topleft"/>
    </contour>
    <contour>
      <point x="85" y="0" type="move" name="bottom"/>
    </contour>
  </outline>
</glyph>
<glyph name="hethebrew" format="1">
  <advance width="636"/>
  <unicode hex="05D7"/>
  <outline>
    <contour>
      <point x="123" y="0" type="line" smooth="yes"/>
      <point x="137" y="0"/>
      <point x="150" y="10"/>
      <point x="153" y="24" type="curve" smooth="yes"/>
      <point x="246" y="464" type="line"/>
      <point x="351" y="464" type="line" smooth="yes"/>
      <point x="450" y="464"/>
      <point x="482" y="412"/>
      <point x="463" y="322" type="curve" smooth="yes"/>
      <point x="400" y="24" type="line" smooth="yes"/>
      <point x="397" y="10"/>
      <point x="405" y="0"/>
      <point x="419" y="0" type="curve" smooth="yes"/>
      <point x="499" y="0" type="line" smooth="yes"/>
      <point x="513" y="0"/>
      <point x="526" y="10"/>
      <point x="529" y="24" type="curve" smooth="yes"/>
      <point x="592" y="323" type="line" smooth="yes"/>
      <point x="628" y="495"/>
      <point x="557" y="571"/>
      <point x="378" y="571" type="curve" smooth="yes"/>
      <point x="164" y="571" type="line" smooth="yes"/>
      <point x="150" y="571"/>
      <point x="138" y="561"/>
      <point x="135" y="547" type="curve" smooth="yes"/>
      <point x="24" y="24" type="line" smooth="yes"/>
      <point x="21" y="10"/>
      <point x="29" y="0"/>
      <point x="43" y="0" type="curve" smooth="yes"/>
    </contour>
    <contour>
      <point x="323" y="260" type="move" name="center"/>
    </contour>
    <contour>
      <point x="379" y="520" type="move" name="top"/>
    </contour>
    <contour>
      <point x="-30" y="0" type="move" name="bottomleft"/>
    </contour>
    <contour>
      <point x="81" y="520" type="move" name="topleft"/>
    </contour>
    <contour>
      <point x="268" y="0" type="move" name="bottom"/>
    </contour>
  </outline>
</glyph>
<glyph name="tethebrew" format="1">
  <advance width="641"/>
  <unicode hex="05D8"/>
  <outline>
    <contour>
      <point x="461" y="-10"/>
      <point x="554" y="78"/>
      <point x="592" y="231" type="curve" smooth="yes"/>
      <point x="597" y="251"/>
      <point x="612" y="323"/>
      <point x="616" y="343" type="curve" smooth="yes"/>
      <point x="647" y="500"/>
      <point x="600" y="575"/>
      <point x="461" y="575" type="curve" smooth="yes"/>
      <point x="410" y="575"/>
      <point x="381" y="566"/>
      <point x="356" y="552" type="curve" smooth="yes"/>
      <point x="341" y="544"/>
      <point x="336" y="532"/>
      <point x="333" y="519" type="curve" smooth="yes"/>
      <point x="322" y="464" type="line" smooth="yes"/>
      <point x="318" y="448"/>
      <point x="332" y="440"/>
      <point x="347" y="447" type="curve" smooth="yes"/>
      <point x="367" y="457"/>
      <point x="397" y="465"/>
      <point x="417" y="465" type="curve" smooth="yes"/>
      <point x="477" y="465"/>
      <point x="504" y="419"/>
      <point x="486" y="325" type="curve" smooth="yes"/>
      <point x="482" y="305"/>
      <point x="472" y="257"/>
      <point x="467" y="236" type="curve" smooth="yes"/>
      <point x="446" y="145"/>
      <point x="392" y="101"/>
      <point x="299" y="101" type="curve" smooth="yes"/>
      <point x="206" y="101"/>
      <point x="165" y="149"/>
      <point x="185" y="242" type="curve" smooth="yes"/>
      <point x="250" y="547" type="line" smooth="yes"/>
      <point x="252" y="561"/>
      <point x="244" y="571"/>
      <point x="230" y="571" type="curve" smooth="yes"/>
      <point x="159" y="571" type="line" smooth="yes"/>
      <point x="145" y="571"/>
      <point x="133" y="561"/>
      <point x="130" y="547" type="curve" smooth="yes"/>
      <point x="64" y="237" type="line" smooth="yes"/>
      <point x="31" y="82"/>
      <point x="92" y="-10"/>
      <point x="277" y="-10" type="curve" smooth="yes"/>
    </contour>
    <contour>
      <point x="277" y="0" type="move" name="bottom"/>
    </contour>
    <contour>
      <point x="388" y="520" type="move" name="top"/>
    </contour>
    <contour>
      <point x="-30" y="0" type="move" name="bottomleft"/>
    </contour>
    <contour>
      <point x="81" y="520" type="move" name="topleft"/>
    </contour>
    <contour>
      <point x="330" y="260" type="move" name="center"/>
    </contour>
  </outline>
</glyph>
<glyph name="yodhebrew" format="1">
  <advance width="259"/>
  <unicode hex="05D9"/>
  <outline>
    <contour>
      <point x="171" y="234" type="line" smooth="yes"/>
      <point x="185" y="234"/>
      <point x="198" y="244"/>
      <point x="201" y="258" type="curve"/>
      <point x="262" y="547" type="line" smooth="yes"/>
      <point x="264" y="561"/>
      <point x="256" y="571"/>
      <point x="242" y="571" type="curve" smooth="yes"/>
      <point x="158" y="571" type="line" smooth="yes"/>
      <point x="144" y="571"/>
      <point x="132" y="561"/>
      <point x="129" y="547" type="curve" smooth="yes"/>
      <point x="68" y="258" type="line" smooth="yes"/>
      <point x="65" y="244"/>
      <point x="73" y="234"/>
      <point x="87" y="234" type="curve" smooth="yes"/>
    </contour>
    <contour>
      <point x="7" y="260" type="move" name="center"/>
    </contour>
    <contour>
      <point x="191" y="520" type="move" name="top"/>
    </contour>
    <contour>
      <point x="-30" y="0" type="move" name="bottomleft"/>
    </contour>
    <contour>
      <point x="81" y="520" type="move" name="topleft"/>
    </contour>
    <contour>
      <point x="80" y="0" type="move" name="bottom"/>
    </contour>
  </outline>
</glyph>
<glyph name="kafhebrew" format="1">
  <advance width="552"/>
  <unicode hex="05DB"/>
  <outline>
    <contour>
      <point x="189" y="0" type="line" smooth="yes"/>
      <point x="373" y="0"/>
      <point x="469" y="97"/>
      <point x="508" y="252" type="curve" smooth="yes"/>
      <point x="514" y="278"/>
      <point x="518" y="293"/>
      <point x="522" y="319" type="curve" smooth="yes"/>
      <point x="549" y="474"/>
      <point x="494" y="571"/>
      <point x="310" y="571" type="curve" smooth="yes"/>
      <point x="161" y="571" type="line" smooth="yes"/>
      <point x="147" y="571"/>
      <point x="135" y="561"/>
      <point x="132" y="547" type="curve" smooth="yes"/>
      <point x="119" y="484" type="line" smooth="yes"/>
      <point x="116" y="470"/>
      <point x="124" y="460"/>
      <point x="137" y="460" type="curve" smooth="yes"/>
      <point x="282" y="460" type="line" smooth="yes"/>
      <point x="381" y="460"/>
      <point x="414" y="408"/>
      <point x="397" y="317" type="curve" smooth="yes"/>
      <point x="393" y="292"/>
      <point x="391" y="279"/>
      <point x="384" y="254" type="curve" smooth="yes"/>
      <point x="361" y="163"/>
      <point x="306" y="111"/>
      <point x="207" y="111" type="curve" smooth="yes"/>
      <point x="63" y="111" type="line" smooth="yes"/>
      <point x="49" y="111"/>
      <point x="37" y="101"/>
      <point x="34" y="87" type="curve" smooth="yes"/>
      <point x="21" y="24" type="line" smooth="yes"/>
      <point x="18" y="10"/>
      <point x="26" y="0"/>
      <point x="40" y="0" type="curve" smooth="yes"/>
    </contour>
    <contour>
      <point x="216" y="0" type="move" name="bottom"/>
    </contour>
    <contour>
      <point x="323" y="520" type="move" name="top"/>
    </contour>
    <contour>
      <point x="-7" y="0" type="move" name="bottomleft"/>
    </contour>
    <contour>
      <point x="104" y="520" type="move" name="topleft"/>
    </contour>
    <contour>
      <point x="227" y="260" type="move" name="center"/>
    </contour>
  </outline>
</glyph>
<glyph name="lamedhebrew" format="1">
  <advance width="527"/>
  <unicode hex="05DC"/>
  <outline>
    <contour>
      <point x="189" y="2" type="line" smooth="yes"/>
      <point x="323" y="40"/>
      <point x="461" y="132"/>
      <point x="500" y="315" type="curve" smooth="yes"/>
      <point x="538" y="490"/>
      <point x="490" y="571"/>
      <point x="310" y="571" type="curve" smooth="yes"/>
      <point x="259" y="571" type="line"/>
      <point x="246" y="571"/>
      <point x="233" y="561"/>
      <point x="230" y="548" type="curve"/>
      <point x="217" y="484" type="line"/>
      <point x="214" y="470"/>
      <point x="222" y="460"/>
      <point x="236" y="460" type="curve"/>
      <point x="263" y="460" type="line"/>
      <point x="366" y="460"/>
      <point x="391" y="422"/>
      <point x="369" y="314" type="curve" smooth="yes"/>
      <point x="344" y="198"/>
      <point x="280" y="154"/>
      <point x="208" y="127" type="curve" smooth="yes"/>
      <point x="169" y="113" type="line" smooth="yes"/>
      <point x="154" y="107"/>
      <point x="142" y="96"/>
      <point x="139" y="84" type="curve" smooth="yes"/>
      <point x="124" y="11" type="line" smooth="yes"/>
      <point x="121" y="-3"/>
      <point x="131" y="-15"/>
      <point x="145" y="-11" type="curve" smooth="yes"/>
    </contour>
    <contour>
      <point x="290" y="571" type="line"/>
      <point x="241" y="571" type="line"/>
      <point x="265" y="686" type="line" smooth="yes"/>
      <point x="268" y="700"/>
      <point x="260" y="710"/>
      <point x="247" y="710" type="curve" smooth="yes"/>
      <point x="173" y="710" type="line" smooth="yes"/>
      <point x="159" y="710"/>
      <point x="146" y="700"/>
      <point x="143" y="686" type="curve" smooth="yes"/>
      <point x="101" y="484" type="line" smooth="yes"/>
      <point x="98" y="470"/>
      <point x="106" y="461"/>
      <point x="120" y="461" type="curve" smooth="yes"/>
      <point x="265" y="460" type="line"/>
    </contour>
    <contour>
      <point x="228" y="0" type="move" name="bottom"/>
    </contour>
    <contour>
      <point x="308" y="520" type="move" name="top"/>
    </contour>
    <contour>
      <point x="1" y="0" type="move" name="bottomleft"/>
    </contour>
    <contour>
      <point x="112" y="520" type="move" name="topleft"/>
    </contour>
    <contour>
      <point x="199" y="260" type="move" name="center"/>
    </contour>
  </outline>
</glyph>
<glyph name="finalmemhebrew" format="1">
  <advance width="625"/>
  <unicode hex="05DD"/>
  <outline>
    <contour>
      <point x="488" y="0" type="line" smooth="yes"/>
      <point x="502" y="0"/>
      <point x="515" y="11"/>
      <point x="518" y="25" type="curve" smooth="yes"/>
      <point x="582" y="327" type="line" smooth="yes"/>
      <point x="617" y="496"/>
      <point x="546" y="571"/>
      <point x="372" y="571" type="curve" smooth="yes"/>
      <point x="164" y="571" type="line" smooth="yes"/>
      <point x="150" y="571"/>
      <point x="138" y="561"/>
      <point x="135" y="547" type="curve" smooth="yes"/>
      <point x="24" y="24" type="line" smooth="yes"/>
      <point x="21" y="10"/>
      <point x="29" y="0"/>
      <point x="43" y="0" type="curve" smooth="yes"/>
    </contour>
    <contour>
      <point x="234" y="464" type="line"/>
      <point x="344" y="464" type="line" smooth="yes"/>
      <point x="444" y="464"/>
      <point x="476" y="412"/>
      <point x="456" y="322" type="curve" smooth="yes"/>
      <point x="411" y="107" type="line"/>
      <point x="158" y="107" type="line"/>
    </contour>
    <contour>
      <point x="318" y="260" type="move" name="center"/>
    </contour>
    <contour>
      <point x="374" y="520" type="move" name="top"/>
    </contour>
    <contour>
      <point x="-30" y="0" type="move" name="bottomleft"/>
    </contour>
    <contour>
      <point x="81" y="520" type="move" name="topleft"/>
    </contour>
    <contour>
      <point x="263" y="0" type="move" name="bottom"/>
    </contour>
  </outline>
</glyph>
<glyph name="memhebrew" format="1">
  <advance width="651"/>
  <unicode hex="05DE"/>
  <outline>
    <contour>
      <point x="514" y="0" type="line" smooth="yes"/>
      <point x="528" y="0"/>
      <point x="541" y="10"/>
      <point x="544" y="24" type="curve" smooth="yes"/>
      <point x="608" y="327" type="line" smooth="yes"/>
      <point x="643" y="492"/>
      <point x="566" y="577"/>
      <point x="437" y="577" type="curve" smooth="yes"/>
      <point x="316" y="578"/>
      <point x="207" y="464"/>
      <point x="161" y="365" type="curve"/>
      <point x="153" y="290" type="line"/>
      <point x="204" y="384"/>
      <point x="301" y="469"/>
      <point x="397" y="468" type="curve" smooth="yes"/>
      <point x="461" y="468"/>
      <point x="498" y="412"/>
      <point x="478" y="322" type="curve" smooth="yes"/>
      <point x="432" y="107" type="line"/>
      <point x="272" y="107" type="line" smooth="yes"/>
      <point x="258" y="107"/>
      <point x="246" y="97"/>
      <point x="243" y="83" type="curve" smooth="yes"/>
      <point x="231" y="24" type="line" smooth="yes"/>
      <point x="228" y="10"/>
      <point x="235" y="0"/>
      <point x="249" y="0" type="curve" smooth="yes"/>
    </contour>
    <contour>
      <point x="92" y="0" type="line" smooth="yes"/>
      <point x="105" y="0"/>
      <point x="119" y="11"/>
      <point x="123" y="25" type="curve"/>
      <point x="297" y="447" type="line" smooth="yes"/>
      <point x="304" y="460"/>
      <point x="295" y="472"/>
      <point x="281" y="473" type="curve" smooth="yes"/>
      <point x="204" y="474" type="line" smooth="yes"/>
      <point x="191" y="476"/>
      <point x="179" y="466"/>
      <point x="173" y="453" type="curve" smooth="yes"/>
      <point x="-3" y="25" type="line" smooth="yes"/>
      <point x="-9" y="11"/>
      <point x="0" y="0"/>
      <point x="13" y="0" type="curve" smooth="yes"/>
    </contour>
    <contour>
      <point x="138" y="571"/>
      <point x="121" y="559"/>
      <point x="124" y="546" type="curve" smooth="yes"/>
      <point x="148" y="413" type="line" smooth="yes"/>
      <point x="150" y="399"/>
      <point x="155" y="390"/>
      <point x="169" y="392" type="curve" smooth="yes"/>
      <point x="252" y="393" type="line" smooth="yes"/>
      <point x="266" y="394"/>
      <point x="280" y="406"/>
      <point x="280" y="419" type="curve" smooth="yes"/>
      <point x="257" y="546" type="line" smooth="yes"/>
      <point x="254" y="559"/>
      <point x="250" y="571"/>
      <point x="236" y="571" type="curve" smooth="yes"/>
      <point x="151" y="571" type="line" smooth="yes"/>
    </contour>
    <contour>
      <point x="281" y="0" type="move" name="bottom"/>
    </contour>
    <contour>
      <point x="383" y="520" type="move" name="top"/>
    </contour>
    <contour>
      <point x="-38" y="0" type="move" name="bottomleft"/>
    </contour>
    <contour>
      <point x="73" y="520" type="move" name="topleft"/>
    </contour>
    <contour>
      <point x="335" y="248" type="move" name="center"/>
    </contour>
  </outline>
</glyph>
<glyph name="finalnunhebrew" format="1">
  <advance width="266"/>
  <unicode hex="05DF"/>
  <outline>
    <contour>
      <point x="97" y="-124" type="line" smooth="yes"/>
      <point x="111" y="-124"/>
      <point x="124" y="-114"/>
      <point x="126" y="-100" type="curve"/>
      <point x="264" y="547" type="line" smooth="yes"/>
      <point x="267" y="561"/>
      <point x="258" y="571"/>
      <point x="244" y="571" type="curve" smooth="yes"/>
      <point x="164" y="571" type="line" smooth="yes"/>
      <point x="150" y="571"/>
      <point x="138" y="561"/>
      <point x="136" y="547" type="curve" smooth="yes"/>
      <point x="-3" y="-100" type="line" smooth="yes"/>
      <point x="-5" y="-114"/>
      <point x="3" y="-124"/>
      <point x="17" y="-124" type="curve" smooth="yes"/>
    </contour>
    <contour>
      <point x="83" y="0" type="move" name="bottom"/>
    </contour>
    <contour>
      <point x="194" y="520" type="move" name="top"/>
    </contour>
    <contour>
      <point x="-30" y="0" type="move" name="bottomleft"/>
    </contour>
    <contour>
      <point x="81" y="520" type="move" name="topleft"/>
    </contour>
    <contour>
      <point x="138" y="260" type="move" name="center"/>
    </contour>
  </outline>
</glyph>
<glyph name="nunhebrew" format="1">
  <advance width="425"/>
  <unicode hex="05E0"/>
  <outline>
    <contour>
      <point x="294" y="0" type="line" smooth="yes"/>
      <point x="308" y="0"/>
      <point x="320" y="7"/>
      <point x="323" y="21" type="curve" smooth="yes"/>
      <point x="341" y="107" type="line"/>
      <point x="38" y="107" type="line" smooth="yes"/>
      <point x="24" y="107"/>
      <point x="12" y="97"/>
      <point x="9" y="83" type="curve" smooth="yes"/>
      <point x="-3" y="24" type="line" smooth="yes"/>
      <point x="-6" y="10"/>
      <point x="2" y="0"/>
      <point x="16" y="0" type="curve" smooth="yes"/>
    </contour>
    <contour>
      <point x="309" y="0" type="line" smooth="yes"/>
      <point x="323" y="0"/>
      <point x="337" y="10"/>
      <point x="339" y="24" type="curve" smooth="yes"/>
      <point x="388" y="333" type="line" smooth="yes"/>
      <point x="413" y="490"/>
      <point x="383" y="575"/>
      <point x="220" y="575" type="curve" smooth="yes"/>
      <point x="172" y="575" type="line" smooth="yes"/>
      <point x="158" y="575"/>
      <point x="146" y="565"/>
      <point x="144" y="551" type="curve" smooth="yes"/>
      <point x="131" y="493" type="line" smooth="yes"/>
      <point x="128" y="480"/>
      <point x="136" y="469"/>
      <point x="150" y="469" type="curve" smooth="yes"/>
      <point x="196" y="469" type="line" smooth="yes"/>
      <point x="271" y="469"/>
      <point x="268" y="418"/>
      <point x="255" y="332" type="curve" smooth="yes"/>
      <point x="206" y="24" type="line"/>
      <point x="205" y="10"/>
      <point x="211" y="0"/>
      <point x="225" y="0" type="curve" smooth="yes"/>
    </contour>
    <contour>
      <point x="155" y="260" type="move" name="center"/>
    </contour>
    <contour>
      <point x="271" y="520" type="move" name="top"/>
    </contour>
    <contour>
      <point x="-30" y="0" type="move" name="bottomleft"/>
    </contour>
    <contour>
      <point x="81" y="520" type="move" name="topleft"/>
    </contour>
    <contour>
      <point x="160" y="0" type="move" name="bottom"/>
    </contour>
  </outline>
</glyph>
<glyph name="samekhhebrew" format="1">
  <advance width="644"/>
  <unicode hex="05E1"/>
  <outline>
    <contour>
      <point x="465" y="-10"/>
      <point x="556" y="78"/>
      <point x="594" y="231" type="curve" smooth="yes"/>
      <point x="599" y="251"/>
      <point x="612" y="312"/>
      <point x="615" y="332" type="curve" smooth="yes"/>
      <point x="641" y="484"/>
      <point x="594" y="571"/>
      <point x="405" y="571" type="curve"/>
      <point x="157" y="571" type="line" smooth="yes"/>
      <point x="143" y="571"/>
      <point x="131" y="561"/>
      <point x="129" y="547" type="curve" smooth="yes"/>
      <point x="63" y="240" type="line" smooth="yes"/>
      <point x="30" y="83"/>
      <point x="93" y="-10"/>
      <point x="269" y="-10" type="curve" smooth="yes"/>
    </contour>
    <contour>
      <point x="202" y="101"/>
      <point x="164" y="149"/>
      <point x="184" y="242" type="curve" smooth="yes"/>
      <point x="231" y="464" type="line"/>
      <point x="378" y="464" type="line" smooth="yes"/>
      <point x="468" y="464"/>
      <point x="507" y="418"/>
      <point x="491" y="327" type="curve" smooth="yes"/>
      <point x="487" y="307"/>
      <point x="477" y="256"/>
      <point x="471" y="236" type="curve" smooth="yes"/>
      <point x="449" y="143"/>
      <point x="402" y="101"/>
      <point x="292" y="101" type="curve" smooth="yes"/>
    </contour>
    <contour>
      <point x="324" y="260" type="move" name="center"/>
    </contour>
    <contour>
      <point x="375" y="520" type="move" name="top"/>
    </contour>
    <contour>
      <point x="-30" y="0" type="move" name="bottomleft"/>
    </contour>
    <contour>
      <point x="81" y="520" type="move" name="topleft"/>
    </contour>
    <contour>
      <point x="264" y="0" type="move" name="bottom"/>
    </contour>
  </outline>
</glyph>
<glyph name="finalpehebrew" format="1">
  <advance width="568"/>
  <unicode hex="05E3"/>
  <outline>
    <contour>
      <point x="415" y="-124" type="line" smooth="yes"/>
      <point x="429" y="-124"/>
      <point x="441" y="-114"/>
      <point x="443" y="-100" type="curve"/>
      <point x="533" y="319" type="line"/>
      <point x="562" y="474"/>
      <point x="504" y="571"/>
      <point x="329" y="571" type="curve" smooth="yes"/>
      <point x="206" y="571" type="line" smooth="yes"/>
      <point x="181" y="571"/>
      <point x="158" y="557"/>
      <point x="145" y="523" type="curve" smooth="yes"/>
      <point x="129" y="484" type="line" smooth="yes"/>
      <point x="125" y="470"/>
      <point x="134" y="460"/>
      <point x="148" y="460" type="curve" smooth="yes"/>
      <point x="294" y="461" type="line" smooth="yes"/>
      <point x="393" y="461"/>
      <point x="426" y="408"/>
      <point x="407" y="317" type="curve"/>
      <point x="319" y="-100" type="line"/>
      <point x="316" y="-114"/>
      <point x="325" y="-124"/>
      <point x="338" y="-124" type="curve" smooth="yes"/>
    </contour>
    <contour>
      <point x="136" y="524"/>
      <point x="90" y="458"/>
      <point x="72" y="376" type="curve" smooth="yes"/>
      <point x="53" y="285"/>
      <point x="83" y="235"/>
      <point x="116" y="195" type="curve" smooth="yes"/>
      <point x="132" y="176" type="line" smooth="yes"/>
      <point x="139" y="168"/>
      <point x="152" y="168"/>
      <point x="163" y="176" type="curve" smooth="yes"/>
      <point x="224" y="207" type="line" smooth="yes"/>
      <point x="235" y="216"/>
      <point x="238" y="230"/>
      <point x="231" y="238" type="curve" smooth="yes"/>
      <point x="216" y="259" type="line" smooth="yes"/>
      <point x="202" y="277"/>
      <point x="172" y="311"/>
      <point x="185" y="375" type="curve" smooth="yes"/>
      <point x="200" y="444"/>
      <point x="231" y="488"/>
      <point x="260" y="520" type="curve" smooth="yes"/>
      <point x="269" y="530"/>
      <point x="265" y="544"/>
      <point x="255" y="548" type="curve"/>
      <point x="217" y="569" type="line"/>
      <point x="205" y="574"/>
      <point x="175" y="568"/>
      <point x="164" y="556" type="curve" smooth="yes"/>
    </contour>
    <contour>
      <point x="235" y="0" type="move" name="bottom"/>
    </contour>
    <contour>
      <point x="346" y="520" type="move" name="top"/>
    </contour>
    <contour>
      <point x="-30" y="0" type="move" name="bottomleft"/>
    </contour>
    <contour>
      <point x="81" y="520" type="move" name="topleft"/>
    </contour>
    <contour>
      <point x="290" y="313" type="move" name="center"/>
    </contour>
  </outline>
</glyph>
<glyph name="pehebrew" format="1">
  <advance width="575"/>
  <unicode hex="05E4"/>
  <outline>
    <contour>
      <point x="143" y="460"/>
      <point x="134" y="472"/>
      <point x="138" y="484" type="curve" smooth="yes"/>
      <point x="162" y="547" type="line" smooth="yes"/>
      <point x="166" y="561"/>
      <point x="177" y="571"/>
      <point x="191" y="571" type="curve" smooth="yes"/>
      <point x="352" y="571" type="line" smooth="yes"/>
      <point x="517" y="571"/>
      <point x="572" y="474"/>
      <point x="546" y="319" type="curve" smooth="yes"/>
      <point x="542" y="299"/>
      <point x="536" y="272"/>
      <point x="531" y="252" type="curve" smooth="yes"/>
      <point x="493" y="97"/>
      <point x="396" y="0"/>
      <point x="231" y="0" type="curve" smooth="yes"/>
      <point x="44" y="0" type="line" smooth="yes"/>
      <point x="30" y="0"/>
      <point x="22" y="10"/>
      <point x="25" y="24" type="curve" smooth="yes"/>
      <point x="38" y="87" type="line" smooth="yes"/>
      <point x="41" y="101"/>
      <point x="53" y="111"/>
      <point x="67" y="111" type="curve" smooth="yes"/>
      <point x="249" y="111" type="line" smooth="yes"/>
      <point x="329" y="111"/>
      <point x="390" y="163"/>
      <point x="413" y="254" type="curve" smooth="yes"/>
      <point x="419" y="274"/>
      <point x="424" y="297"/>
      <point x="427" y="317" type="curve" smooth="yes"/>
      <point x="443" y="408"/>
      <point x="404" y="460"/>
      <point x="323" y="460" type="curve" smooth="yes"/>
      <point x="157" y="460" type="line" smooth="yes"/>
    </contour>
    <contour>
      <point x="175" y="569"/>
      <point x="184" y="574"/>
      <point x="196" y="569" type="curve"/>
      <point x="255" y="548" type="line"/>
      <point x="265" y="544"/>
      <point x="269" y="530"/>
      <point x="260" y="520" type="curve" smooth="yes"/>
      <point x="231" y="488"/>
      <point x="194" y="441"/>
      <point x="185" y="398" type="curve" smooth="yes"/>
      <point x="177" y="356"/>
      <point x="179" y="333"/>
      <point x="201" y="321" type="curve" smooth="yes"/>
      <point x="213" y="315" type="line" smooth="yes"/>
      <point x="222" y="310"/>
      <point x="226" y="299"/>
      <point x="223" y="284" type="curve" smooth="yes"/>
      <point x="215" y="243" type="line" smooth="yes"/>
      <point x="212" y="228"/>
      <point x="191" y="219"/>
      <point x="176" y="222" type="curve" smooth="yes"/>
      <point x="151" y="225" type="line" smooth="yes"/>
      <point x="89" y="238"/>
      <point x="57" y="312"/>
      <point x="76" y="398" type="curve" smooth="yes"/>
      <point x="90" y="466"/>
      <point x="136" y="524"/>
      <point x="164" y="557" type="curve" smooth="yes"/>
    </contour>
    <contour>
      <point x="225" y="0" type="move" name="bottom"/>
    </contour>
    <contour>
      <point x="336" y="520" type="move" name="top"/>
    </contour>
    <contour>
      <point x="-29" y="0" type="move" name="bottomleft"/>
    </contour>
    <contour>
      <point x="82" y="520" type="move" name="topleft"/>
    </contour>
    <contour>
      <point x="287" y="260" type="move" name="center"/>
    </contour>
  </outline>
</glyph>
<glyph name="finaltsadihebrew" format="1">
  <advance width="524"/>
  <unicode hex="05E5"/>
  <outline>
    <contour>
      <point x="313" y="-124" type="line" smooth="yes"/>
      <point x="324" y="-124"/>
      <point x="336" y="-115"/>
      <point x="338" y="-104" type="curve" smooth="yes"/>
      <point x="339" y="-99"/>
      <point x="338" y="-95"/>
      <point x="336" y="-87" type="curve" smooth="yes"/>
      <point x="288" y="183" type="line"/>
      <point x="407" y="214"/>
      <point x="504" y="298"/>
      <point x="533" y="437" type="curve" smooth="yes"/>
      <point x="556" y="546" type="line" smooth="yes"/>
      <point x="559" y="560"/>
      <point x="551" y="571"/>
      <point x="537" y="571" type="curve" smooth="yes"/>
      <point x="465" y="571" type="line" smooth="yes"/>
      <point x="451" y="571"/>
      <point x="439" y="561"/>
      <point x="436" y="546" type="curve" smooth="yes"/>
      <point x="414" y="443" type="line" smooth="yes"/>
      <point x="396" y="358"/>
      <point x="347" y="306"/>
      <point x="269" y="293" type="curve"/>
      <point x="223" y="547" type="line"/>
      <point x="221" y="562"/>
      <point x="214" y="571"/>
      <point x="198" y="571" type="curve" smooth="yes"/>
      <point x="116" y="571" type="line" smooth="yes"/>
      <point x="105" y="571"/>
      <point x="93" y="562"/>
      <point x="91" y="551" type="curve" smooth="yes"/>
      <point x="90" y="546"/>
      <point x="91" y="543"/>
      <point x="92" y="534" type="curve" smooth="yes"/>
      <point x="206" y="-105" type="line" smooth="yes"/>
      <point x="208" y="-115"/>
      <point x="214" y="-124"/>
      <point x="230" y="-124" type="curve" smooth="yes"/>
    </contour>
    <contour>
      <point x="212" y="0" type="move" name="bottom"/>
    </contour>
    <contour>
      <point x="323" y="520" type="move" name="top"/>
    </contour>
    <contour>
      <point x="-30" y="0" type="move" name="bottomleft"/>
    </contour>
    <contour>
      <point x="81" y="520" type="move" name="topleft"/>
    </contour>
    <contour>
      <point x="267" y="260" type="move" name="center"/>
    </contour>
  </outline>
</glyph>
<glyph name="tsadihebrew" format="1">
  <advance width="560"/>
  <unicode hex="05E6"/>
  <outline>
    <contour>
      <point x="415" y="0" type="line" smooth="yes"/>
      <point x="428" y="0"/>
      <point x="441" y="10"/>
      <point x="444" y="24" type="curve" smooth="yes"/>
      <point x="456" y="80" type="line" smooth="yes"/>
      <point x="459" y="94"/>
      <point x="455" y="103"/>
      <point x="450" y="112" type="curve" smooth="yes"/>
      <point x="229" y="554" type="line" smooth="yes"/>
      <point x="226" y="561"/>
      <point x="220" y="571"/>
      <point x="203" y="571" type="curve" smooth="yes"/>
      <point x="119" y="571" type="line" smooth="yes"/>
      <point x="107" y="571"/>
      <point x="96" y="562"/>
      <point x="93" y="551" type="curve" smooth="yes"/>
      <point x="92" y="546"/>
      <point x="94" y="540"/>
      <point x="97" y="534" type="curve" smooth="yes"/>
      <point x="308" y="109" type="line"/>
      <point x="55" y="109" type="line" smooth="yes"/>
      <point x="41" y="109"/>
      <point x="28" y="99"/>
      <point x="26" y="85" type="curve" smooth="yes"/>
      <point x="13" y="24" type="line" smooth="yes"/>
      <point x="10" y="10"/>
      <point x="18" y="0"/>
      <point x="32" y="0" type="curve" smooth="yes"/>
    </contour>
    <contour>
      <point x="468" y="274"/>
      <point x="532" y="352"/>
      <point x="553" y="454" type="curve" smooth="yes"/>
      <point x="573" y="546" type="line" smooth="yes"/>
      <point x="575" y="560"/>
      <point x="567" y="571"/>
      <point x="553" y="571" type="curve" smooth="yes"/>
      <point x="481" y="571" type="line" smooth="yes"/>
      <point x="468" y="571"/>
      <point x="455" y="561"/>
      <point x="452" y="546" type="curve" smooth="yes"/>
      <point x="437" y="475" type="line" smooth="yes"/>
      <point x="421" y="402"/>
      <point x="388" y="347"/>
      <point x="324" y="321" type="curve"/>
      <point x="368" y="232" type="line"/>
    </contour>
    <contour>
      <point x="130" y="217" type="move" name="center"/>
    </contour>
    <contour>
      <point x="337" y="520" type="move" name="top"/>
    </contour>
    <contour>
      <point x="-30" y="0" type="move" name="bottomleft"/>
    </contour>
    <contour>
      <point x="81" y="520" type="move" name="topleft"/>
    </contour>
    <contour>
      <point x="226" y="0" type="move" name="bottom"/>
    </contour>
  </outline>
</glyph>
<glyph name="qofhebrew" format="1">
  <advance width="646"/>
  <unicode hex="05E7"/>
  <outline>
    <contour>
      <point x="80" y="-191" type="line" smooth="yes"/>
      <point x="93" y="-191"/>
      <point x="106" y="-181"/>
      <point x="109" y="-167" type="curve"/>
      <point x="219" y="350" type="line" smooth="yes"/>
      <point x="222" y="364"/>
      <point x="214" y="374"/>
      <point x="200" y="374" type="curve" smooth="yes"/>
      <point x="122" y="374" type="line" smooth="yes"/>
      <point x="108" y="374"/>
      <point x="96" y="364"/>
      <point x="93" y="350" type="curve" smooth="yes"/>
      <point x="-17" y="-167" type="line" smooth="yes"/>
      <point x="-20" y="-181"/>
      <point x="-12" y="-191"/>
      <point x="2" y="-191" type="curve" smooth="yes"/>
    </contour>
    <contour>
      <point x="300" y="2" type="line" smooth="yes"/>
      <point x="435" y="40"/>
      <point x="573" y="132"/>
      <point x="612" y="315" type="curve" smooth="yes"/>
      <point x="649" y="490"/>
      <point x="601" y="571"/>
      <point x="421" y="571" type="curve" smooth="yes"/>
      <point x="164" y="571" type="line"/>
      <point x="151" y="571"/>
      <point x="138" y="561"/>
      <point x="135" y="548" type="curve"/>
      <point x="122" y="484" type="line"/>
      <point x="119" y="470"/>
      <point x="127" y="460"/>
      <point x="141" y="460" type="curve"/>
      <point x="374" y="460" type="line"/>
      <point x="478" y="460"/>
      <point x="503" y="422"/>
      <point x="480" y="314" type="curve" smooth="yes"/>
      <point x="455" y="198"/>
      <point x="392" y="154"/>
      <point x="319" y="127" type="curve" smooth="yes"/>
      <point x="281" y="113" type="line" smooth="yes"/>
      <point x="265" y="107"/>
      <point x="253" y="96"/>
      <point x="251" y="84" type="curve" smooth="yes"/>
      <point x="235" y="11" type="line" smooth="yes"/>
      <point x="233" y="-3"/>
      <point x="243" y="-15"/>
      <point x="256" y="-11" type="curve" smooth="yes"/>
    </contour>
    <contour>
      <point x="310" y="260" type="move" name="center"/>
    </contour>
    <contour>
      <point x="366" y="520" type="move" name="top"/>
    </contour>
    <contour>
      <point x="-30" y="0" type="move" name="bottomleft"/>
    </contour>
    <contour>
      <point x="81" y="520" type="move" name="topleft"/>
    </contour>
    <contour>
      <point x="362" y="0" type="move" name="bottom"/>
    </contour>
  </outline>
</glyph>
<glyph name="reshhebrew" format="1">
  <advance width="546"/>
  <unicode hex="05E8"/>
  <outline>
    <contour>
      <point x="409" y="0" type="line" smooth="yes"/>
      <point x="422" y="0"/>
      <point x="435" y="10"/>
      <point x="438" y="24" type="curve" smooth="yes"/>
      <point x="503" y="327" type="line" smooth="yes"/>
      <point x="538" y="496"/>
      <point x="465" y="571"/>
      <point x="288" y="571" type="curve" smooth="yes"/>
      <point x="142" y="571" type="line"/>
      <point x="128" y="571"/>
      <point x="116" y="561"/>
      <point x="114" y="547" type="curve" smooth="yes"/>
      <point x="101" y="488" type="line" smooth="yes"/>
      <point x="98" y="475"/>
      <point x="106" y="464"/>
      <point x="120" y="464" type="curve" smooth="yes"/>
      <point x="260" y="464" type="line" smooth="yes"/>
      <point x="360" y="464"/>
      <point x="392" y="412"/>
      <point x="372" y="322" type="curve" smooth="yes"/>
      <point x="310" y="24" type="line" smooth="yes"/>
      <point x="306" y="10"/>
      <point x="314" y="0"/>
      <point x="328" y="0" type="curve" smooth="yes"/>
    </contour>
    <contour>
      <point x="365" y="0" type="move" name="bottom"/>
    </contour>
    <contour>
      <point x="352" y="520" type="move" name="top"/>
    </contour>
    <contour>
      <point x="4" y="0" type="move" name="bottomleft"/>
    </contour>
    <contour>
      <point x="115" y="520" type="move" name="topleft"/>
    </contour>
    <contour>
      <point x="225" y="260" type="move" name="center"/>
    </contour>
  </outline>
</glyph>
<glyph name="shinhebrew" format="1">
  <advance width="750"/>
  <unicode hex="05E9"/>
  <outline>
    <contour>
      <point x="320" y="100" type="line"/>
      <point x="229" y="100"/>
      <point x="172" y="146"/>
      <point x="196" y="259" type="curve"/>
      <point x="255" y="547" type="line" smooth="yes"/>
      <point x="258" y="561"/>
      <point x="249" y="571"/>
      <point x="235" y="571" type="curve" smooth="yes"/>
      <point x="163" y="571" type="line" smooth="yes"/>
      <point x="150" y="571"/>
      <point x="137" y="561"/>
      <point x="135" y="547" type="curve" smooth="yes"/>
      <point x="67" y="229" type="line" smooth="yes"/>
      <point x="38" y="94"/>
      <point x="115" y="-7"/>
      <point x="262" y="-7" type="curve" smooth="yes"/>
      <point x="347" y="-7" type="line" smooth="yes"/>
      <point x="512" y="-10"/>
      <point x="659" y="102"/>
      <point x="696" y="277" type="curve" smooth="yes"/>
      <point x="754" y="547" type="line" smooth="yes"/>
      <point x="756" y="561"/>
      <point x="748" y="571"/>
      <point x="734" y="571" type="curve" smooth="yes"/>
      <point x="662" y="571" type="line" smooth="yes"/>
      <point x="648" y="571"/>
      <point x="636" y="561"/>
      <point x="634" y="547" type="curve" smooth="yes"/>
      <point x="577" y="283" type="line" smooth="yes"/>
      <point x="554" y="175"/>
      <point x="465" y="98"/>
      <point x="348" y="100" type="curve"/>
    </contour>
    <contour>
      <point x="339" y="190"/>
      <point x="452" y="287"/>
      <point x="484" y="434" type="curve" smooth="yes"/>
      <point x="507" y="546" type="line" smooth="yes"/>
      <point x="510" y="560"/>
      <point x="502" y="571"/>
      <point x="488" y="571" type="curve" smooth="yes"/>
      <point x="416" y="571" type="line" smooth="yes"/>
      <point x="403" y="571"/>
      <point x="390" y="561"/>
      <point x="388" y="546" type="curve" smooth="yes"/>
      <point x="364" y="437" type="line" smooth="yes"/>
      <point x="345" y="347"/>
      <point x="292" y="272"/>
      <point x="179" y="271" type="curve"/>
      <point x="163" y="191" type="line"/>
    </contour>
    <contour>
      <point x="344" y="0" type="move" name="bottom"/>
    </contour>
    <contour>
      <point x="455" y="520" type="move" name="top"/>
    </contour>
    <contour>
      <point x="-25" y="0" type="move" name="bottomleft"/>
    </contour>
    <contour>
      <point x="68" y="520" type="move" name="topleft"/>
    </contour>
    <contour>
      <point x="809" y="520" type="move" name="topright"/>
    </contour>
    <contour>
      <point x="494" y="260" type="move" name="center"/>
    </contour>
  </outline>
</glyph>
<glyph name="twothirds" format="1">
  <advance width="845"/>
  <unicode hex="2154"/>
  <outline>
    <contour>
      <point x="58" y="31" type="line" smooth="yes"/>
      <point x="44" y="17"/>
      <point x="52" y="0"/>
      <point x="72" y="0" type="curve"/>
      <point x="133" y="0" type="line" smooth="yes"/>
      <point x="152" y="0"/>
      <point x="161" y="7"/>
      <point x="173" y="19" type="curve"/>
      <point x="805" y="669" type="line" smooth="yes"/>
      <point x="819" y="683"/>
      <point x="811" y="700"/>
      <point x="791" y="700" type="curve"/>
      <point x="730" y="700" type="line" smooth="yes"/>
      <point x="711" y="700"/>
      <point x="702" y="693"/>
      <point x="690" y="681" type="curve" smooth="yes"/>
    </contour>
    <contour>
      <point x="793" y="322" type="line" smooth="yes"/>
      <point x="796" y="335"/>
      <point x="789" y="344"/>
      <point x="776" y="344" type="curve" smooth="yes"/>
      <point x="560" y="344" type="line" smooth="yes"/>
      <point x="547" y="344"/>
      <point x="536" y="335"/>
      <point x="533" y="322" type="curve" smooth="yes"/>
      <point x="524" y="280" type="line" smooth="yes"/>
      <point x="521" y="267"/>
      <point x="528" y="258"/>
      <point x="541" y="258" type="curve" smooth="yes"/>
      <point x="656" y="258" type="line"/>
      <point x="577" y="201" type="line"/>
      <point x="569" y="194"/>
      <point x="563" y="187"/>
      <point x="561" y="178" type="curve" smooth="yes"/>
      <point x="557" y="155" type="line" smooth="yes"/>
      <point x="554" y="142"/>
      <point x="561" y="133"/>
      <point x="574" y="133" type="curve" smooth="yes"/>
      <point x="620" y="133" type="line" smooth="yes"/>
      <point x="650" y="133"/>
      <point x="661" y="126"/>
      <point x="657" y="105" type="curve" smooth="yes"/>
      <point x="653" y="87"/>
      <point x="633" y="75"/>
      <point x="606" y="75" type="curve" smooth="yes"/>
      <point x="578" y="75"/>
      <point x="567" y="78"/>
      <point x="557" y="90" type="curve" smooth="yes"/>
      <point x="551" y="97"/>
      <point x="548" y="102"/>
      <point x="539" y="102" type="curve" smooth="yes"/>
      <point x="481" y="102" type="line" smooth="yes"/>
      <point x="475" y="102"/>
      <point x="462" y="95"/>
      <point x="460" y="82" type="curve" smooth="yes"/>
      <point x="456" y="51"/>
      <point x="501" y="-11"/>
      <point x="599" y="-11" type="curve" smooth="yes"/>
      <point x="692" y="-11"/>
      <point x="752" y="38"/>
      <point x="764" y="98" type="curve" smooth="yes"/>
      <point x="773" y="145"/>
      <point x="754" y="190"/>
      <point x="696" y="204" type="curve"/>
      <point x="761" y="248" type="line" smooth="yes"/>
      <point x="780" y="261"/>
      <point x="781" y="266"/>
      <point x="784" y="281" type="curve" smooth="yes"/>
    </contour>
    <contour>
      <point x="44" y="372" type="line" smooth="yes"/>
      <point x="41" y="359"/>
      <point x="47" y="350"/>
      <point x="60" y="350" type="curve" smooth="yes"/>
      <point x="309" y="350" type="line" smooth="yes"/>
      <point x="322" y="350"/>
      <point x="333" y="359"/>
      <point x="336" y="372" type="curve" smooth="yes"/>
      <point x="345" y="414" type="line" smooth="yes"/>
      <point x="348" y="427"/>
      <point x="341" y="436"/>
      <point x="328" y="436" type="curve" smooth="yes"/>
      <point x="226" y="436" type="line"/>
      <point x="335" y="499"/>
      <point x="353" y="520"/>
      <point x="366" y="583" type="curve" smooth="yes"/>
      <point x="380" y="649"/>
      <point x="335" y="705"/>
      <point x="249" y="705" type="curve" smooth="yes"/>
      <point x="166" y="705"/>
      <point x="115" y="650"/>
      <point x="101" y="598" type="curve" smooth="yes"/>
      <point x="98" y="586"/>
      <point x="103" y="579"/>
      <point x="115" y="579" type="curve" smooth="yes"/>
      <point x="167" y="579" type="line" smooth="yes"/>
      <point x="177" y="579"/>
      <point x="184" y="578"/>
      <point x="195" y="593" type="curve" smooth="yes"/>
      <point x="203" y="604"/>
      <point x="215" y="619"/>
      <point x="241" y="619" type="curve" smooth="yes"/>
      <point x="269" y="619"/>
      <point x="274" y="600"/>
      <point x="269" y="581" type="curve" smooth="yes"/>
      <point x="262" y="545"/>
      <point x="213" y="528"/>
      <point x="79" y="441" type="curve" smooth="yes"/>
      <point x="57" y="427"/>
      <point x="52" y="412"/>
      <point x="49" y="402" type="curve" smooth="yes"/>
    </contour>
  </outline>
</glyph>
